<svg width="20" height="20" viewBox="0 0 20 20" fill="none" xmlns="http://www.w3.org/2000/svg">
    <path d="M10 10.2618C10.6835 10.2618 11.2375 9.68874 11.2375 8.98182C11.2375 8.27489 10.6835 7.70182 10 7.70182C9.31655 7.70182 8.7625 8.27489 8.7625 8.98182C8.7625 9.68874 9.31655 10.2618 10 10.2618Z" fill="#D9D9D9"/>
    <path d="M10 10.2618C10.6835 10.2618 11.2375 9.68874 11.2375 8.98182C11.2375 8.27489 10.6835 7.70182 10 7.70182C9.31655 7.70182 8.7625 8.27489 8.7625 8.98182C8.7625 9.68874 9.31655 10.2618 10 10.2618Z" fill="url(#paint0_linear_488_19305)"/>
    <path d="M14.6125 8.98182C14.6125 9.68874 14.0585 10.2618 13.375 10.2618C12.6915 10.2618 12.1375 9.68874 12.1375 8.98182C12.1375 8.27489 12.6915 7.70182 13.375 7.70182C14.0585 7.70182 14.6125 8.27489 14.6125 8.98182Z" fill="#D9D9D9"/>
    <path d="M14.6125 8.98182C14.6125 9.68874 14.0585 10.2618 13.375 10.2618C12.6915 10.2618 12.1375 9.68874 12.1375 8.98182C12.1375 8.27489 12.6915 7.70182 13.375 7.70182C14.0585 7.70182 14.6125 8.27489 14.6125 8.98182Z" fill="url(#paint1_linear_488_19305)"/>
    <path d="M6.625 10.2618C7.30845 10.2618 7.8625 9.68874 7.8625 8.98182C7.8625 8.27489 7.30845 7.70182 6.625 7.70182C5.94155 7.70182 5.3875 8.27489 5.3875 8.98182C5.3875 9.68874 5.94155 10.2618 6.625 10.2618Z" fill="#D9D9D9"/>
    <path d="M6.625 10.2618C7.30845 10.2618 7.8625 9.68874 7.8625 8.98182C7.8625 8.27489 7.30845 7.70182 6.625 7.70182C5.94155 7.70182 5.3875 8.27489 5.3875 8.98182C5.3875 9.68874 5.94155 10.2618 6.625 10.2618Z" fill="url(#paint2_linear_488_19305)"/>
    <path fill-rule="evenodd" clip-rule="evenodd" d="M4.65625 18C5.40223 18 6.13731 17.9523 6.85668 17.8615C13.6229 17.0075 19 12.3408 19 7.69362C19 3.37485 14.569 0.892521 11.5387 2.48496C10.9616 2.78823 10.4352 3.2393 10 3.85362C9.56477 3.2393 9.03845 2.78823 8.46133 2.48496C5.43098 0.892521 1 3.37485 1 7.69362C1 10.7189 3.10366 13.1253 5.66875 15.0909L4.65625 18ZM13.5615 13.0708C11.9634 14.2524 9.91709 15.1754 7.63746 15.6182L8.08405 14.335L6.87422 13.4079C4.3955 11.5085 3.025 9.64945 3.025 7.69362C3.025 6.08703 3.9899 4.86888 5.2377 4.34796C7.52935 3.39125 8.47014 4.5181 9.77646 6.08278C9.84972 6.17053 9.92413 6.25966 10 6.34988C11.3161 4.65105 12.3421 3.3376 14.7623 4.34796C16.0101 4.86888 16.975 6.08703 16.975 7.69362C16.975 9.33331 15.8836 11.3539 13.5615 13.0708Z" fill="#D9D9D9"/>
    <path fill-rule="evenodd" clip-rule="evenodd" d="M4.65625 18C5.40223 18 6.13731 17.9523 6.85668 17.8615C13.6229 17.0075 19 12.3408 19 7.69362C19 3.37485 14.569 0.892521 11.5387 2.48496C10.9616 2.78823 10.4352 3.2393 10 3.85362C9.56477 3.2393 9.03845 2.78823 8.46133 2.48496C5.43098 0.892521 1 3.37485 1 7.69362C1 10.7189 3.10366 13.1253 5.66875 15.0909L4.65625 18ZM13.5615 13.0708C11.9634 14.2524 9.91709 15.1754 7.63746 15.6182L8.08405 14.335L6.87422 13.4079C4.3955 11.5085 3.025 9.64945 3.025 7.69362C3.025 6.08703 3.9899 4.86888 5.2377 4.34796C7.52935 3.39125 8.47014 4.5181 9.77646 6.08278C9.84972 6.17053 9.92413 6.25966 10 6.34988C11.3161 4.65105 12.3421 3.3376 14.7623 4.34796C16.0101 4.86888 16.975 6.08703 16.975 7.69362C16.975 9.33331 15.8836 11.3539 13.5615 13.0708Z" fill="url(#paint3_linear_488_19305)"/>
    <defs>
        <linearGradient id="paint0_linear_488_19305" x1="6.62499" y1="7.70182" x2="6.62499" y2="10.2618" gradientUnits="userSpaceOnUse">
            <stop stop-color="#D261DA"/>
            <stop offset="1" stop-color="#F891C5"/>
        </linearGradient>
        <linearGradient id="paint1_linear_488_19305" x1="6.62499" y1="7.70182" x2="6.62499" y2="10.2618" gradientUnits="userSpaceOnUse">
            <stop stop-color="#D261DA"/>
            <stop offset="1" stop-color="#F891C5"/>
        </linearGradient>
        <linearGradient id="paint2_linear_488_19305" x1="6.62499" y1="7.70182" x2="6.62499" y2="10.2618" gradientUnits="userSpaceOnUse">
            <stop stop-color="#D261DA"/>
            <stop offset="1" stop-color="#F891C5"/>
        </linearGradient>
        <linearGradient id="paint3_linear_488_19305" x1="6.62499" y1="7.70182" x2="6.62499" y2="10.2618" gradientUnits="userSpaceOnUse">
            <stop stop-color="#D261DA"/>
            <stop offset="1" stop-color="#F891C5"/>
        </linearGradient>
    </defs>
</svg>
